<?xml version="1.0" standalone="no"?>
<!DOCTYPE svg PUBLIC "-//W3C//DTD SVG 20010904//EN"
 "http://www.w3.org/TR/2001/REC-SVG-20010904/DTD/svg10.dtd">
<svg version="1.0" xmlns="http://www.w3.org/2000/svg"
 width="225.000000pt" height="225.000000pt" viewBox="0 0 225.000000 225.000000"
 preserveAspectRatio="xMidYMid meet">
<metadata>
Created by potrace 1.15, written by Peter Selinger 2001-2017
</metadata>
<g transform="translate(0.000000,225.000000) scale(0.100000,-0.100000)"
fill="#000000" stroke="none">
<path d="M1605 1229 c-46 -41 -65 -78 -65 -127 0 -51 14 -62 77 -62 49 0 53
-2 53 -23 0 -37 -43 -71 -79 -64 -26 5 -33 2 -52 -24 -18 -26 -19 -33 -8 -40
30 -19 77 -9 120 24 52 40 79 89 79 144 0 51 -17 63 -84 63 -38 0 -46 3 -46
18 0 31 25 56 48 49 16 -4 27 2 43 24 11 16 17 33 14 39 -13 21 -64 10 -100
-21z"/>
<path d="M1443 1138 c-22 -11 -23 -16 -23 -150 0 -125 -2 -140 -20 -158 -15
-15 -25 -18 -37 -12 -12 7 -22 2 -42 -20 -24 -30 -24 -31 -5 -45 37 -27 111
12 144 77 17 34 20 59 20 180 0 77 -3 140 -7 139 -5 0 -18 -5 -30 -11z"/>
</g>
</svg>
