<?xml version="1.0" standalone="no"?>
<!DOCTYPE svg PUBLIC "-//W3C//DTD SVG 20010904//EN"
 "http://www.w3.org/TR/2001/REC-SVG-20010904/DTD/svg10.dtd">
<svg version="1.0" xmlns="http://www.w3.org/2000/svg"
 width="375.000000pt" height="450.000000pt" viewBox="0 0 375.000000 450.000000"
 preserveAspectRatio="xMidYMid meet">
<metadata>
Created by potrace 1.15, written by Peter Selinger 2001-2017
</metadata>
<g transform="translate(0.000000,450.000000) scale(0.100000,-0.100000)"
fill="#000000" stroke="none">
<path d="M1748 4193 c7 -3 12 -25 12 -61 l0 -56 -45 44 c-24 24 -42 48 -38 53
3 5 -3 7 -13 5 -13 -2 -25 -20 -36 -53 -9 -28 -17 -45 -17 -38 -1 6 -10 15
-22 18 -21 7 -21 7 3 33 18 20 14 19 -15 -6 -21 -18 -44 -32 -51 -32 -8 0 -19
-7 -27 -16 -8 -10 -23 -14 -41 -12 -15 3 -28 1 -28 -3 0 -4 -20 -11 -44 -14
-59 -9 -80 -32 -66 -70 14 -37 8 -50 -28 -63 -28 -10 -31 -8 -40 18 -7 19 -7
31 1 39 9 9 8 11 -6 5 -11 -4 -16 -13 -13 -21 4 -8 9 -26 12 -39 6 -22 4 -24
-17 -20 -13 3 -31 0 -39 -7 -34 -27 -71 -81 -66 -94 3 -8 2 -12 -3 -9 -5 3
-11 -4 -14 -15 -3 -12 -10 -18 -15 -15 -16 10 -44 -5 -38 -20 3 -8 1 -14 -4
-14 -6 0 -10 -14 -10 -31 l0 -31 -21 23 -20 24 7 -25 c3 -14 11 -30 16 -37 15
-19 0 -50 -33 -63 -16 -7 -27 -15 -24 -18 2 -3 1 -10 -4 -16 -5 -6 -21 -46
-35 -89 -24 -70 -26 -82 -14 -113 11 -32 10 -40 -8 -73 -13 -23 -18 -45 -14
-57 4 -11 1 -28 -6 -39 -20 -28 -17 -40 11 -53 25 -12 25 -13 10 -43 -16 -30
-16 -32 6 -55 19 -20 20 -24 6 -24 -9 0 -17 -4 -17 -10 0 -5 7 -10 17 -10 14
0 14 -2 -3 -21 -20 -22 -20 -59 -1 -94 15 -28 18 -43 20 -102 2 -44 -1 -53
-15 -53 -9 0 -20 5 -23 10 -3 6 1 10 9 10 9 0 16 5 16 10 0 13 -26 13 -51 -1
-19 -10 -20 -9 -9 13 11 22 10 22 -4 4 -18 -22 -20 -66 -7 -114 8 -28 7 -32
-9 -32 -10 0 -22 -4 -25 -10 -3 -5 2 -10 11 -10 16 0 16 -1 -1 -20 -21 -24
-14 -53 12 -43 10 4 2 -10 -19 -32 -21 -22 -38 -42 -38 -45 0 -3 25 -18 56
-33 30 -15 52 -32 49 -37 -4 -6 -3 -10 2 -9 24 4 44 -3 40 -13 -2 -7 -11 -12
-20 -12 -9 1 -15 -2 -12 -6 3 -4 -2 -13 -11 -20 -13 -11 -22 -6 -62 31 l-47
44 48 -51 c26 -27 44 -54 40 -59 -5 -4 -3 -6 2 -3 6 3 30 -4 55 -17 l44 -23
-54 -8 c-30 -4 -58 -7 -62 -6 -5 1 -8 -2 -8 -8 0 -12 52 -13 103 -1 33 8 37 7
37 -10 0 -10 7 -19 15 -19 8 0 15 7 15 15 0 21 -32 50 -87 80 -36 18 -41 23
-19 19 21 -5 27 -4 22 5 -6 8 0 10 21 6 27 -6 27 -6 8 10 -19 16 -19 16 10 13
28 -3 30 -1 28 27 -1 16 -9 35 -18 41 -14 10 -12 13 14 22 42 15 54 -2 36 -53
-11 -34 -11 -44 2 -69 32 -61 13 -136 -34 -136 -26 0 -12 -42 31 -88 42 -46
62 -84 58 -109 -2 -8 9 -13 29 -13 l32 0 -22 -24 -23 -24 26 -18 27 -17 -23
-24 -22 -24 28 -23 c26 -20 27 -25 16 -45 -6 -13 -13 -34 -15 -48 -3 -29 -9
-36 -35 -38 -23 -2 -60 -33 -60 -51 0 -8 -18 -26 -40 -40 -39 -26 -68 -83 -53
-107 3 -6 1 -7 -5 -3 -7 4 -12 2 -12 -3 0 -6 -6 -11 -14 -11 -8 0 -16 -5 -18
-11 -3 -9 -14 -9 -42 1 -46 15 -53 9 -31 -24 17 -25 17 -26 -1 -20 -13 4 -10
-1 8 -16 24 -19 29 -50 8 -50 -8 0 -35 57 -35 75 0 5 -7 11 -15 12 -16 3 -69
-65 -75 -96 -5 -26 -24 -61 -33 -61 -5 0 -13 5 -18 10 -6 6 -25 14 -42 19 -30
9 -32 8 -32 -15 0 -22 -3 -24 -54 -24 -30 0 -57 -4 -61 -10 -3 -5 -12 -7 -19
-4 -9 4 -18 -9 -27 -38 -10 -29 -21 -44 -34 -46 -28 -5 -84 -32 -119 -55 -32
-23 -32 -23 -69 44 -26 46 -32 28 -7 -21 l21 -41 -21 11 c-18 10 -26 6 -55
-23 -39 -39 -67 -40 -98 -3 l-18 21 11 -24 c9 -17 9 -26 1 -34 -8 -8 -11 -7
-11 5 0 8 -7 21 -15 28 -13 11 -15 -49 -15 -534 l0 -546 1875 0 1875 0 -1 248
c-1 224 -13 485 -18 387 l-2 -40 -14 34 c-11 25 -13 45 -6 80 l9 46 1 -39 c0
-22 4 -37 7 -33 4 3 3 75 -1 159 -4 84 -10 147 -12 141 -3 -7 -12 -13 -20 -13
-14 0 -13 3 3 23 18 21 17 21 -8 -2 l-27 -23 -33 38 c-18 21 -32 41 -30 46 2
9 -43 1 -69 -13 -11 -6 -22 -2 -34 11 -10 11 -23 20 -30 20 -26 0 -34 22 -19
52 9 17 14 32 11 34 -2 2 -12 -13 -21 -34 l-18 -39 -37 19 -38 19 10 44 c13
58 2 68 -31 28 -17 -20 -34 -30 -47 -28 -11 2 -28 -3 -37 -12 -17 -15 -18 -14
-18 6 0 32 -23 53 -41 38 -11 -10 -11 -9 0 5 14 19 7 38 -14 38 -7 0 -27 -11
-43 -25 l-30 -25 -7 39 c-8 48 -31 77 -69 87 l-27 6 21 23 c13 14 17 25 11 29
-5 4 -18 -5 -28 -18 l-18 -24 -30 59 -31 60 -27 -21 -27 -21 0 40 c0 22 -4 43
-10 46 -5 3 -10 14 -10 23 0 24 -75 137 -92 138 -7 0 -23 2 -35 2 -14 1 -23 9
-23 18 0 13 -8 15 -42 12 -35 -4 -47 0 -65 19 l-23 23 37 41 c30 33 34 42 22
50 -11 8 -9 13 14 30 35 27 35 55 0 64 l-27 6 26 22 c17 14 34 47 47 92 12 39
26 84 31 101 6 17 10 38 10 47 0 21 16 22 24 2 8 -22 33 -18 50 7 27 39 18 56
-10 20 -26 -33 -27 -33 -41 -13 -14 21 -9 46 7 36 5 -3 11 -1 15 5 4 6 12 7
18 3 8 -4 7 -1 -1 9 -10 13 -10 18 -1 24 7 4 9 3 6 -3 -4 -6 1 -14 10 -18 10
-3 19 -1 21 4 2 6 15 11 28 11 13 0 24 6 24 13 0 15 -33 48 -64 64 -12 7 -15
13 -7 17 6 4 11 2 11 -3 0 -6 5 -11 10 -11 6 0 10 9 10 20 0 18 3 19 20 10 11
-6 20 -8 20 -6 0 3 -12 12 -27 20 -16 8 -23 15 -17 16 15 0 26 44 18 74 -4 18
-15 26 -40 31 -31 5 -33 8 -23 26 11 21 11 21 40 -7 21 -20 32 -25 40 -17 15
15 1 56 -17 49 -8 -3 -13 -2 -10 3 5 8 -22 25 -32 21 -5 -2 -31 34 -32 43 0
10 42 -13 55 -30 9 -12 11 -11 12 5 1 12 -10 25 -30 35 l-32 16 47 0 c41 1 48
4 53 24 7 26 -10 77 -25 77 -5 0 -10 5 -10 11 0 6 -21 32 -46 57 -45 46 -45
47 -25 64 12 9 26 18 31 20 6 2 12 25 13 51 2 26 9 53 15 59 17 17 16 44 -1
30 -10 -9 -13 -1 -11 41 1 34 -5 65 -17 89 -24 48 -24 48 11 48 20 0 30 5 30
15 0 8 -7 15 -15 15 -8 0 -15 5 -15 10 0 6 7 10 15 10 27 0 16 31 -15 44 -17
7 -28 15 -25 17 8 9 15 79 7 79 -4 0 -8 14 -9 30 -1 19 3 30 10 30 7 0 22 7
33 16 18 14 17 15 -18 9 -37 -6 -38 -5 -38 25 0 16 -5 30 -11 30 -6 0 -8 8 -5
18 6 19 -27 65 -54 74 -10 3 -9 11 5 38 l18 35 -22 -19 -21 -19 0 35 c0 44
-43 92 -76 85 -18 -3 -23 3 -34 46 -12 47 -14 49 -41 43 -25 -5 -29 -2 -29 17
0 27 -17 47 -41 47 -9 0 -22 7 -30 16 -8 10 -23 14 -40 12 -26 -4 -27 -2 -22
24 3 17 1 28 -6 28 -6 0 -11 -7 -11 -15 0 -21 -17 -19 -23 4 -3 11 -17 22 -35
26 -18 3 -32 14 -35 26 -3 10 -13 19 -22 19 -12 0 -15 -5 -11 -16 5 -12 2 -15
-10 -10 -8 3 -21 6 -27 6 -6 0 -2 7 9 15 17 15 16 15 -11 2 -26 -13 -35 -13
-68 0 l-37 15 21 35 c12 19 19 36 17 38 -2 3 -14 -13 -26 -34 l-22 -39 -37 34
c-23 21 -43 32 -53 29 -8 -4 -37 -9 -63 -12 -36 -4 -52 -12 -64 -29 -20 -31
-28 -30 -43 7 -16 39 -37 59 -58 58 -11 0 -12 -2 -4 -6z m247 -569 c1 -11 11
-37 23 -58 21 -35 25 -37 60 -33 32 3 38 1 39 -16 3 -28 5 -29 82 -28 76 1 86
-7 46 -33 -14 -9 -25 -23 -25 -32 0 -12 11 -15 57 -13 56 3 58 2 67 -27 16
-55 21 -59 75 -62 l51 -3 -24 -36 c-14 -19 -22 -41 -19 -48 2 -8 -5 -18 -16
-25 -12 -6 -21 -20 -21 -30 0 -23 17 -27 22 -6 2 11 9 11 34 -3 l31 -17 -33
-22 c-26 -17 -34 -19 -34 -8 0 8 -5 18 -12 22 -8 5 -9 2 -5 -9 4 -10 2 -16 -6
-14 -7 1 -11 -9 -10 -25 1 -16 -2 -28 -6 -28 -4 0 -25 -25 -47 -55 -21 -30
-43 -55 -49 -55 -5 0 -21 9 -35 20 -35 28 -57 25 -75 -10 -17 -34 -18 -34 -47
-19 -12 6 -23 7 -27 2 -3 -5 -29 -18 -57 -30 -48 -20 -53 -20 -70 -4 -17 15
-17 15 0 -6 10 -13 23 -20 29 -16 5 3 7 1 3 -5 -3 -6 -19 -13 -35 -17 -51 -11
-53 -24 -10 -95 24 -40 34 -67 28 -71 -15 -9 35 -17 67 -11 14 3 47 26 72 51
26 25 52 45 59 43 7 -2 13 2 13 8 0 5 5 10 10 10 27 0 -10 -147 -50 -201 -10
-15 -16 -29 -13 -33 10 -10 68 -7 79 4 7 7 33 -2 77 -26 37 -19 68 -33 68 -30
1 3 3 11 4 16 1 6 3 15 4 21 1 16 99 5 143 -15 18 -8 47 -17 63 -19 l30 -3
-27 -12 c-43 -18 -35 -36 12 -29 l39 5 -14 -28 c-8 -16 -15 -40 -15 -55 0 -14
-4 -25 -10 -25 -16 0 -11 -30 10 -60 l21 -29 -53 -3 -53 -3 -17 -80 c-9 -44
-17 -82 -18 -85 -1 -3 -2 -8 -1 -12 0 -4 -6 -5 -14 -2 -8 4 -13 9 -11 13 8 12
-72 5 -88 -8 -14 -12 -16 -10 -16 13 0 14 -4 26 -9 26 -13 0 -22 -30 -16 -54
5 -17 4 -18 -4 -6 -9 13 -11 13 -11 0 0 -11 -18 -19 -57 -28 -32 -6 -63 -13
-69 -15 -23 -6 -45 -30 -40 -44 3 -8 2 -12 -3 -8 -5 3 -12 -1 -15 -7 -4 -7 -4
8 -1 35 3 29 1 47 -6 47 -20 0 -37 61 -26 96 6 19 13 34 16 35 45 6 71 23 71
46 0 8 -16 21 -35 29 -31 13 -34 17 -25 34 6 11 8 20 6 20 -3 0 -12 -13 -21
-29 -10 -21 -20 -28 -34 -24 -10 2 -41 -7 -69 -21 -28 -14 -65 -26 -81 -26
-17 0 -45 -7 -64 -16 -32 -15 -36 -15 -85 10 -64 33 -72 32 -73 -1 0 -16 -3
-22 -6 -15 -4 11 -75 62 -87 62 -12 0 -26 -71 -26 -133 0 -64 1 -68 17 -56 14
12 16 12 11 -1 -2 -8 -14 -19 -26 -25 -29 -13 -28 -23 3 -37 14 -6 25 -14 25
-18 0 -17 -28 -41 -57 -49 l-33 -9 7 57 c5 56 5 58 -20 65 -28 7 -60 -7 -97
-41 l-24 -23 -23 22 c-14 13 -19 24 -14 26 6 2 11 19 11 38 0 21 -4 33 -10 29
-5 -3 -10 -17 -10 -30 0 -22 -3 -24 -32 -18 -42 8 -42 7 -29 31 6 11 8 28 5
36 -7 18 -63 31 -98 22 -22 -5 -23 -3 -20 34 2 28 -1 40 -11 40 -8 0 -23 13
-35 30 -12 17 -28 30 -36 30 -13 0 -13 3 0 22 21 29 20 82 0 99 -13 11 -13 15
-2 23 18 15 60 105 53 117 -3 5 1 6 9 3 9 -3 16 -1 16 5 0 6 -6 11 -12 11 -9
0 -8 4 2 10 22 15 30 12 23 -7 -6 -16 -4 -16 15 1 12 11 22 16 22 12 0 -4 9
-2 19 4 16 8 25 5 48 -14 21 -17 36 -23 56 -19 18 4 34 0 45 -10 16 -15 21
-15 47 -1 16 8 33 21 37 27 5 8 11 6 21 -7 13 -18 18 -19 56 -8 44 14 50 22
26 42 -8 7 -12 17 -8 23 3 5 2 7 -4 4 -5 -3 -22 5 -38 17 -28 23 -29 24 -12
49 9 15 17 36 17 48 0 18 -2 19 -15 9 -16 -14 -18 -8 -9 28 l7 23 11 -23 c8
-15 19 -22 33 -20 17 2 20 -1 16 -18 -5 -18 -1 -20 33 -20 l38 0 -30 -33 c-18
-21 -15 -19 9 5 21 21 42 38 47 38 5 0 36 16 69 36 71 42 75 59 27 102 -19 17
-32 32 -30 35 3 3 -11 -1 -32 -8 -32 -11 -41 -10 -65 4 l-28 16 22 25 c19 22
18 21 -9 -3 -30 -27 -31 -27 -47 -9 -10 10 -14 22 -10 27 5 4 3 5 -4 1 -6 -3
-15 -1 -19 5 -5 9 -11 6 -21 -7 -9 -12 -16 -15 -21 -8 -11 17 -40 24 -46 11
-3 -7 -5 -3 -3 8 1 11 -2 26 -6 33 -9 14 -75 16 -96 3 -23 -15 -62 27 -48 50
15 23 -7 49 -41 49 l-26 0 27 28 c30 31 35 67 12 76 -8 3 -12 12 -9 21 4 9 -1
18 -14 22 -18 7 -19 10 -6 27 14 19 14 19 14 -2 0 -12 5 -22 10 -22 6 0 10 14
10 30 0 30 1 31 35 24 34 -6 35 -5 35 25 0 19 6 34 15 37 8 3 17 14 20 25 5
16 10 17 27 8 32 -17 43 2 31 55 -10 44 -10 44 21 52 32 8 47 10 81 13 12 1
16 4 9 9 -6 4 -14 21 -18 37 l-8 30 26 -24 c14 -13 23 -27 21 -31 -10 -16 42
-3 57 15 l17 20 1 -20 c1 -19 1 -19 14 -2 7 9 19 17 25 17 7 0 9 5 6 10 -3 6
-2 10 4 10 5 0 12 -6 14 -12 4 -10 8 -9 16 2 6 8 11 11 11 6 0 -5 7 -3 15 4
13 11 21 8 48 -16 18 -17 24 -19 13 -6 l-19 22 33 0 c28 0 31 -2 20 -15 -7 -9
-10 -18 -7 -21 3 -3 11 5 18 18 7 12 10 25 8 27 -2 2 12 5 31 6 44 3 81 12 92
23 5 5 2 9 -7 9 -8 0 -15 -3 -15 -7 0 -4 -7 -7 -15 -7 -8 0 -15 7 -15 14 0 10
10 13 33 10 24 -2 32 -8 32 -23z m-249 -1477 c8 3 12 -2 11 -15 0 -12 -5 -18
-9 -16 -5 3 -5 11 -2 17 4 7 4 9 -1 5 -4 -4 -15 -3 -24 3 -9 7 -1 -2 17 -20
31 -30 35 -31 106 -28 41 1 77 -1 81 -5 4 -3 2 -16 -5 -27 -10 -19 -6 -23 45
-48 30 -15 55 -30 55 -33 0 -17 -59 -59 -91 -65 -37 -7 -37 -7 -44 34 -4 23
-11 43 -16 47 -11 6 -11 -10 0 -58 7 -28 5 -38 -5 -42 -8 -3 -14 -2 -14 3 0 5
-19 21 -41 36 -23 15 -39 21 -37 14 3 -8 -5 -21 -16 -30 -19 -15 -23 -15 -53
-1 -19 9 -32 21 -29 29 3 7 1 15 -5 18 -5 4 -7 10 -4 15 3 5 -4 14 -15 20 -17
9 -18 14 -9 31 5 11 9 31 7 44 -2 18 7 32 32 54 19 16 39 26 44 21 5 -5 14 -6
22 -3z m304 -296 c18 -35 12 -92 -12 -113 -23 -19 -23 -19 -45 6 -22 26 -53
35 -53 15 0 -5 -4 -8 -9 -4 -5 3 -13 0 -17 -6 -4 -8 -3 -9 4 -5 14 8 15 1 6
-43 l-7 -32 -26 25 c-19 18 -30 23 -41 16 -10 -6 -21 -3 -36 11 -17 16 -27 18
-60 11 -33 -7 -45 -4 -73 15 -18 12 -38 20 -45 16 -6 -3 -3 3 7 14 9 11 17 31
17 45 0 40 43 43 108 8 53 -29 82 -30 82 -4 0 22 17 16 23 -8 6 -21 7 -21 27
-3 11 10 35 20 52 22 18 2 41 10 53 18 27 19 33 18 45 -4z m-315 -260 c11 -5
21 -13 21 -20 1 -6 2 -17 3 -24 2 -22 39 -17 70 11 29 27 58 41 47 23 -7 -10
40 -24 54 -16 6 4 10 2 10 -4 0 -6 10 -16 23 -22 18 -9 20 -9 10 2 -19 20 38
52 71 39 13 -5 32 -6 43 -4 11 3 27 -4 41 -19 27 -29 34 -56 18 -76 -9 -12 -7
-13 10 -9 17 4 20 2 17 -13 -7 -24 -20 -24 -32 -1 -7 13 -7 22 1 30 8 8 2 10
-21 10 -28 -1 -31 -4 -31 -35 l0 -33 -42 6 c-24 4 -48 11 -55 16 -24 19 -68
25 -99 12 -17 -7 -41 -10 -52 -7 -19 4 -22 1 -22 -22 l0 -27 -35 31 c-42 37
-51 38 -66 10 -8 -15 -8 -19 0 -15 7 5 11 -5 11 -29 0 -31 -3 -36 -17 -30 -10
4 -23 8 -30 8 -7 0 -10 4 -7 9 3 4 1 15 -4 25 -7 12 -4 21 12 35 l21 19 -22
-6 c-16 -4 -23 -2 -23 7 0 7 -16 18 -35 24 -19 6 -32 7 -30 4 3 -4 -3 -14 -12
-21 -14 -13 -16 -11 -11 14 3 15 2 27 -3 27 -4 0 -11 10 -15 23 -4 12 -12 25
-18 29 -6 5 -2 8 11 8 12 0 29 3 39 7 14 5 16 2 11 -23 -6 -26 -5 -27 5 -7 13
27 39 25 73 -7 21 -20 27 -21 41 -9 10 8 19 13 22 11 3 -1 7 5 8 14 2 14 0 14
-17 -2 -10 -9 -19 -12 -19 -6 0 6 -3 17 -6 26 -7 17 0 19 31 7z m-773 -821
c81 -47 146 -86 145 -86 -1 -1 -117 20 -257 47 -140 27 -257 49 -260 50 -3 0
45 18 105 39 61 21 112 38 116 37 3 -1 71 -40 151 -87z m1982 59 c89 -14 132
-25 120 -30 -10 -4 -117 -45 -237 -92 -208 -81 -217 -84 -200 -57 123 190 138
210 158 206 11 -2 83 -15 159 -27z m160 -56 c-2 -10 -29 -175 -59 -368 -31
-192 -57 -357 -58 -365 -1 -8 -89 113 -196 268 -106 156 -191 285 -189 287 6
7 482 193 495 194 6 1 9 -7 7 -16z m172 -35 l130 -52 -195 -313 c-107 -171
-197 -311 -198 -309 -3 2 106 693 112 714 3 6 8 12 12 12 4 0 67 -23 139 -52z
m-2596 -220 c197 -342 204 -355 188 -338 -26 26 -430 562 -426 565 2 2 71 21
88 24 3 0 70 -113 150 -251z m281 13 l256 -145 -109 -175 c-59 -97 -112 -177
-116 -179 -6 -2 -319 530 -410 695 -15 28 -46 44 379 -196z m-51 169 c118 -22
224 -44 235 -49 13 -5 28 -31 42 -77 12 -37 21 -69 20 -70 -3 -3 -549 234
-556 242 -3 3 5 3 19 0 14 -3 122 -24 240 -46z m-308 -205 c340 -449 334 -431
52 -161 -137 132 -275 265 -307 296 l-59 57 64 26 c34 14 66 22 69 19 3 -4 85
-110 181 -237z m565 2 c49 -20 53 -25 53 -55 0 -31 -1 -32 -22 -21 -67 35
-434 243 -443 251 -5 4 74 -28 175 -73 102 -44 209 -90 237 -102z m-499 -202
l292 -280 -466 -3 c-257 -1 -469 0 -472 2 -2 3 53 151 123 330 l128 325 51
-47 c29 -26 184 -173 344 -327z m2866 345 c28 -9 53 -23 58 -31 10 -18 119
-481 115 -486 -2 -2 -29 50 -60 114 -30 65 -90 189 -131 276 -67 139 -73 157
-53 151 12 -4 44 -14 71 -24z m-3401 -272 c-63 -161 -117 -295 -120 -298 -3
-3 -3 9 0 25 4 17 9 119 13 229 6 165 9 201 23 212 21 18 184 122 192 123 4 1
-45 -131 -108 -291z m3445 -30 c84 -176 151 -323 149 -325 -2 -2 -164 -2 -360
-1 l-356 3 201 323 c111 177 204 322 207 322 3 0 75 -145 159 -322z m-1678
265 c11 -8 18 -18 16 -22 -3 -4 0 -8 7 -8 7 0 17 -2 22 -3 22 -5 53 13 60 33
6 22 6 22 15 2 5 -11 9 -41 9 -68 1 -40 -2 -49 -21 -56 -34 -13 -62 -48 -94
-118 -16 -34 -32 -62 -36 -62 -4 -1 -12 8 -18 19 -8 14 -8 20 0 20 7 0 5 6 -4
15 -8 8 -17 15 -21 15 -7 0 -26 15 -63 50 -27 25 -57 90 -43 90 5 0 18 9 31
20 12 11 26 17 31 15 4 -3 10 -1 14 5 4 6 10 8 14 6 4 -3 20 8 36 24 33 35 8
36 -29 1 l-24 -22 -22 31 -22 31 61 -2 c34 -1 70 -9 81 -16z m1839 -292 c0
-113 -2 -201 -5 -196 -5 12 -114 472 -114 480 0 4 27 -13 60 -36 l60 -42 -1
-206z m-1033 87 c64 -95 133 -195 152 -223 l35 -50 -31 30 c-62 60 -322 349
-322 357 0 13 31 58 40 58 5 0 61 -78 126 -172z m47 -154 c98 -106 177 -194
177 -197 0 -3 -426 209 -457 227 -1 1 10 50 25 109 l26 107 27 -27 c14 -16
105 -114 202 -219z m-1516 24 c6 -46 11 -83 10 -84 -1 -1 -51 -34 -111 -74
l-109 -73 29 50 c78 132 160 263 165 263 3 0 10 -37 16 -82z m1475 -138 c200
-103 227 -120 188 -116 -25 3 -101 8 -170 11 -69 3 -155 8 -192 12 l-68 6 0
103 c0 57 2 104 4 104 2 0 109 -54 238 -120z"/>
</g>
</svg>
